<mxfile host="65bd71144e">
    <diagram id="Rd9KSDftF9Zw8lbPBkGI" name="Page-1">
        <mxGraphModel dx="2749" dy="1157" grid="0" gridSize="10" guides="1" tooltips="1" connect="1" arrows="1" fold="1" page="0" pageScale="1" pageWidth="827" pageHeight="1169" background="none" math="0" shadow="0">
            <root>
                <mxCell id="0"/>
                <mxCell id="1" parent="0"/>
                <mxCell id="206" value="" style="rounded=0;whiteSpace=wrap;html=1;fontColor=#1A1A1A;fillColor=none;dashed=1;strokeColor=default;fontFamily=source code pro;labelBackgroundColor=none;" parent="1" vertex="1">
                    <mxGeometry x="-373.5" y="-293" width="209.5" height="321.75" as="geometry"/>
                </mxCell>
                <mxCell id="217" value="" style="rounded=0;whiteSpace=wrap;html=1;fontColor=#1A1A1A;fillColor=none;dashed=1;strokeColor=default;fontFamily=source code pro;labelBackgroundColor=none;" parent="1" vertex="1">
                    <mxGeometry x="-277" y="-254" width="76.5" height="184" as="geometry"/>
                </mxCell>
                <mxCell id="179" style="edgeStyle=none;curved=1;rounded=0;orthogonalLoop=1;jettySize=auto;html=1;entryX=0;entryY=0.5;entryDx=0;entryDy=0;strokeColor=default;endArrow=open;startSize=14;endSize=14;sourcePerimeterSpacing=8;targetPerimeterSpacing=8;fontColor=#1A1A1A;fontFamily=source code pro;labelBackgroundColor=none;" parent="1" source="115" target="178" edge="1">
                    <mxGeometry relative="1" as="geometry"/>
                </mxCell>
                <mxCell id="220" value="extended by" style="edgeStyle=orthogonalEdgeStyle;html=1;fontFamily=source code pro;curved=1;entryX=0;entryY=0.25;entryDx=0;entryDy=0;endArrow=none;endFill=0;startArrow=open;startFill=0;dashed=1;" parent="1" source="115" target="217" edge="1">
                    <mxGeometry x="0.8994" y="-15" relative="1" as="geometry">
                        <mxPoint x="-603" y="47" as="targetPoint"/>
                        <Array as="points">
                            <mxPoint x="-529" y="746"/>
                            <mxPoint x="-529" y="-208"/>
                        </Array>
                        <mxPoint as="offset"/>
                    </mxGeometry>
                </mxCell>
                <mxCell id="232" style="edgeStyle=none;html=1;fontFamily=source code pro;fontSize=9;endArrow=open;endFill=0;strokeColor=#FF9933;" edge="1" parent="1" source="115" target="121">
                    <mxGeometry relative="1" as="geometry"/>
                </mxCell>
                <mxCell id="115" value="" style="rounded=0;whiteSpace=wrap;html=1;fontColor=#1A1A1A;fillColor=#999999;fontFamily=source code pro;labelBackgroundColor=none;strokeColor=none;" parent="1" vertex="1">
                    <mxGeometry x="-366.5" y="636" width="188" height="220" as="geometry"/>
                </mxCell>
                <mxCell id="116" value="1: &lt;b&gt;info&lt;/b&gt;&amp;nbsp;= get()" style="edgeStyle=none;html=1;fontColor=#007FFF;strokeColor=#007FFF;labelBackgroundColor=default;fontFamily=source code pro;endArrow=open;endFill=0;" parent="1" source="209" target="121" edge="1">
                    <mxGeometry x="-0.1841" y="2" relative="1" as="geometry">
                        <mxPoint as="offset"/>
                        <mxPoint x="-236" y="183" as="sourcePoint"/>
                    </mxGeometry>
                </mxCell>
                <mxCell id="119" value="" style="rounded=0;whiteSpace=wrap;html=1;fontColor=#1A1A1A;fillColor=#999999;fontFamily=source code pro;labelBackgroundColor=none;strokeColor=none;" parent="1" vertex="1">
                    <mxGeometry x="56" y="636" width="203" height="220" as="geometry"/>
                </mxCell>
                <mxCell id="120" value="2: &lt;b&gt;result&lt;/b&gt;&amp;nbsp;=&amp;nbsp;request()" style="edgeStyle=none;html=1;fontColor=#1A1A1A;exitX=1;exitY=0.5;exitDx=0;exitDy=0;strokeColor=#1A1A1A;labelBackgroundColor=default;fontFamily=source code pro;" parent="1" source="161" target="119" edge="1">
                    <mxGeometry x="-0.0016" relative="1" as="geometry">
                        <mxPoint x="177" y="409" as="sourcePoint"/>
                        <mxPoint as="offset"/>
                        <mxPoint x="150" y="386" as="targetPoint"/>
                    </mxGeometry>
                </mxCell>
                <mxCell id="121" value="docs" style="rounded=0;whiteSpace=wrap;html=1;fontColor=#1A1A1A;fillColor=#B3B3B3;fontFamily=source code pro;labelBackgroundColor=none;strokeColor=none;" parent="1" vertex="1">
                    <mxGeometry x="93" y="153" width="120" height="60" as="geometry"/>
                </mxCell>
                <mxCell id="130" value="" style="rounded=0;whiteSpace=wrap;html=1;fontColor=#1A1A1A;fillColor=#999999;fontFamily=source code pro;labelBackgroundColor=none;strokeColor=none;" parent="1" vertex="1">
                    <mxGeometry x="437" y="623" width="269" height="236" as="geometry"/>
                </mxCell>
                <mxCell id="131" style="edgeStyle=none;html=1;fontColor=#1A1A1A;endArrow=open;endFill=0;exitX=0.5;exitY=1;exitDx=0;exitDy=0;strokeColor=default;fontFamily=source code pro;labelBackgroundColor=none;" parent="1" source="161" target="175" edge="1">
                    <mxGeometry relative="1" as="geometry">
                        <mxPoint x="545" y="384.6875000000002" as="sourcePoint"/>
                        <mxPoint x="805" y="338.64583333333326" as="targetPoint"/>
                    </mxGeometry>
                </mxCell>
                <mxCell id="132" value="&lt;div style=&quot;text-align: justify;&quot;&gt;2:&amp;nbsp;&lt;b&gt;result&lt;/b&gt; = request(&lt;b&gt;SLA&lt;/b&gt;)&lt;/div&gt;" style="edgeLabel;html=1;align=center;verticalAlign=middle;resizable=0;points=[];fontColor=#1A1A1A;labelBackgroundColor=default;fontFamily=source code pro;" parent="131" vertex="1" connectable="0">
                    <mxGeometry x="-0.0379" y="-2" relative="1" as="geometry">
                        <mxPoint as="offset"/>
                    </mxGeometry>
                </mxCell>
                <mxCell id="134" value="Workers L1 NNEDH Support" style="text;html=1;strokeColor=none;fillColor=none;align=center;verticalAlign=middle;whiteSpace=wrap;rounded=0;fontColor=#1A1A1A;fontSize=20;fontFamily=source code pro;labelBackgroundColor=none;" parent="1" vertex="1">
                    <mxGeometry x="-353.5" y="871" width="175" height="59" as="geometry"/>
                </mxCell>
                <mxCell id="135" value="Workers L2&lt;br&gt;Drop-in Support" style="text;html=1;strokeColor=none;fillColor=none;align=center;verticalAlign=middle;whiteSpace=wrap;rounded=0;fontColor=#1A1A1A;fontSize=20;fontFamily=source code pro;labelBackgroundColor=none;" parent="1" vertex="1">
                    <mxGeometry x="70.5" y="871.5" width="176" height="56" as="geometry"/>
                </mxCell>
                <mxCell id="136" style="edgeStyle=none;html=1;exitX=0.5;exitY=0;exitDx=0;exitDy=0;strokeColor=#007FFF;fontColor=#007FFF;fontFamily=source code pro;labelBackgroundColor=default;endArrow=open;endFill=0;" parent="1" source="165" target="121" edge="1">
                    <mxGeometry relative="1" as="geometry"/>
                </mxCell>
                <mxCell id="137" value="3: &lt;b&gt;info&lt;/b&gt; = get()&lt;b&gt;&amp;nbsp;&lt;/b&gt;" style="edgeLabel;html=1;align=center;verticalAlign=middle;resizable=0;points=[];labelBackgroundColor=default;fontColor=#007FFF;fontFamily=source code pro;" parent="136" vertex="1" connectable="0">
                    <mxGeometry x="0.2281" y="-1" relative="1" as="geometry">
                        <mxPoint x="-1" y="11" as="offset"/>
                    </mxGeometry>
                </mxCell>
                <mxCell id="138" style="edgeStyle=none;html=1;exitX=1;exitY=0.5;exitDx=0;exitDy=0;strokeColor=default;fontColor=#1A1A1A;fontFamily=source code pro;labelBackgroundColor=none;endArrow=open;endFill=0;" parent="1" source="165" target="143" edge="1">
                    <mxGeometry relative="1" as="geometry"/>
                </mxCell>
                <mxCell id="139" value="3: &lt;b&gt;info&lt;/b&gt;&amp;nbsp;= request()&lt;b&gt;&amp;nbsp;&lt;/b&gt;" style="edgeLabel;html=1;align=center;verticalAlign=middle;resizable=0;points=[];labelBackgroundColor=default;fontColor=#1A1A1A;fontFamily=source code pro;" parent="138" vertex="1" connectable="0">
                    <mxGeometry x="-0.0558" relative="1" as="geometry">
                        <mxPoint x="-75" y="-45" as="offset"/>
                    </mxGeometry>
                </mxCell>
                <mxCell id="166" style="edgeStyle=none;html=1;entryX=0.5;entryY=1;entryDx=0;entryDy=0;fontSize=12;startArrow=none;startFill=0;endArrow=none;endFill=0;strokeColor=default;fontColor=#1A1A1A;fontFamily=source code pro;labelBackgroundColor=none;" parent="1" source="141" target="165" edge="1">
                    <mxGeometry relative="1" as="geometry"/>
                </mxCell>
                <mxCell id="141" value="L3 Worker&lt;span style=&quot;font-style: normal;&quot;&gt;&amp;nbsp;= DIPM&lt;/span&gt;" style="sketch=0;outlineConnect=0;fontColor=#1A1A1A;gradientColor=none;strokeColor=#1A1A1A;fillColor=none;dashed=0;verticalLabelPosition=bottom;verticalAlign=top;align=center;html=1;fontSize=12;fontStyle=2;aspect=fixed;shape=mxgraph.aws4.resourceIcon;resIcon=mxgraph.aws4.user;fontFamily=source code pro;labelBackgroundColor=none;" parent="1" vertex="1">
                    <mxGeometry x="127.5" y="710.75" width="60" height="60" as="geometry"/>
                </mxCell>
                <mxCell id="142" value="RKPT" style="sketch=0;outlineConnect=0;fontColor=#1A1A1A;gradientColor=none;strokeColor=#1A1A1A;fillColor=none;dashed=0;verticalLabelPosition=bottom;verticalAlign=top;align=center;html=1;fontSize=12;fontStyle=0;aspect=fixed;shape=mxgraph.aws4.resourceIcon;resIcon=mxgraph.aws4.user;fontFamily=source code pro;labelBackgroundColor=none;" parent="1" vertex="1">
                    <mxGeometry x="-340" y="670.25" width="60" height="60" as="geometry"/>
                </mxCell>
                <mxCell id="143" value="" style="rounded=0;whiteSpace=wrap;html=1;fontColor=#1A1A1A;fillColor=none;dashed=1;strokeColor=default;fontFamily=source code pro;labelBackgroundColor=none;" parent="1" vertex="1">
                    <mxGeometry x="459" y="636" width="88" height="211.5" as="geometry"/>
                </mxCell>
                <mxCell id="144" value="Workers L3 NNEDH Platform" style="text;html=1;strokeColor=none;fillColor=none;align=center;verticalAlign=middle;whiteSpace=wrap;rounded=0;fontColor=#1A1A1A;fontSize=20;fontFamily=source code pro;labelBackgroundColor=none;" parent="1" vertex="1">
                    <mxGeometry x="685" y="866" width="172" height="55" as="geometry"/>
                </mxCell>
                <mxCell id="145" value="JYKY" style="sketch=0;outlineConnect=0;fontColor=#1A1A1A;gradientColor=none;strokeColor=#1A1A1A;fillColor=none;dashed=0;verticalLabelPosition=bottom;verticalAlign=top;align=center;html=1;fontSize=12;fontStyle=0;aspect=fixed;shape=mxgraph.aws4.resourceIcon;resIcon=mxgraph.aws4.user;fontFamily=source code pro;labelBackgroundColor=none;" parent="1" vertex="1">
                    <mxGeometry x="473" y="663" width="60" height="60" as="geometry"/>
                </mxCell>
                <mxCell id="146" value="OASF" style="sketch=0;outlineConnect=0;fontColor=#1A1A1A;gradientColor=none;strokeColor=#1A1A1A;fillColor=none;dashed=0;verticalLabelPosition=bottom;verticalAlign=top;align=center;html=1;fontSize=12;fontStyle=0;aspect=fixed;shape=mxgraph.aws4.resourceIcon;resIcon=mxgraph.aws4.user;fontFamily=source code pro;labelBackgroundColor=none;" parent="1" vertex="1">
                    <mxGeometry x="473" y="747" width="60" height="60" as="geometry"/>
                </mxCell>
                <mxCell id="147" value="SNDD" style="sketch=0;outlineConnect=0;fontColor=#1A1A1A;gradientColor=none;strokeColor=#1A1A1A;fillColor=none;dashed=0;verticalLabelPosition=bottom;verticalAlign=top;align=center;html=1;fontSize=12;fontStyle=0;aspect=fixed;shape=mxgraph.aws4.resourceIcon;resIcon=mxgraph.aws4.user;fontFamily=source code pro;labelBackgroundColor=none;" parent="1" vertex="1">
                    <mxGeometry x="560" y="663" width="60" height="60" as="geometry"/>
                </mxCell>
                <mxCell id="148" value="Workers L3 Stand-by &lt;b&gt;Drop-in&lt;/b&gt;" style="text;html=1;strokeColor=none;fillColor=none;align=center;verticalAlign=middle;whiteSpace=wrap;rounded=0;fontColor=#1A1A1A;fontSize=20;fontFamily=source code pro;labelBackgroundColor=none;" parent="1" vertex="1">
                    <mxGeometry x="422" y="508" width="136" height="71" as="geometry"/>
                </mxCell>
                <mxCell id="155" value="DIPM" style="sketch=0;outlineConnect=0;fontColor=#1A1A1A;gradientColor=none;strokeColor=#1A1A1A;fillColor=none;dashed=0;verticalLabelPosition=bottom;verticalAlign=top;align=center;html=1;fontSize=12;fontStyle=0;aspect=fixed;shape=mxgraph.aws4.resourceIcon;resIcon=mxgraph.aws4.user;fontFamily=source code pro;labelBackgroundColor=none;" parent="1" vertex="1">
                    <mxGeometry x="560" y="747" width="60" height="60" as="geometry"/>
                </mxCell>
                <mxCell id="157" value="&lt;span style=&quot;font-style: normal;&quot;&gt;UNRO&lt;/span&gt;" style="sketch=0;outlineConnect=0;fontColor=#1A1A1A;gradientColor=none;strokeColor=#1A1A1A;fillColor=none;dashed=0;verticalLabelPosition=bottom;verticalAlign=top;align=center;html=1;fontSize=12;fontStyle=2;aspect=fixed;shape=mxgraph.aws4.resourceIcon;resIcon=mxgraph.aws4.user;fontFamily=source code pro;labelBackgroundColor=none;" parent="1" vertex="1">
                    <mxGeometry x="-269" y="670.25" width="60" height="60" as="geometry"/>
                </mxCell>
                <mxCell id="158" value="&lt;span style=&quot;font-style: normal;&quot;&gt;UDVC&lt;/span&gt;" style="sketch=0;outlineConnect=0;fontColor=#1A1A1A;gradientColor=none;strokeColor=#1A1A1A;fillColor=none;dashed=0;verticalLabelPosition=bottom;verticalAlign=top;align=center;html=1;fontSize=12;fontStyle=2;aspect=fixed;shape=mxgraph.aws4.resourceIcon;resIcon=mxgraph.aws4.user;fontFamily=source code pro;labelBackgroundColor=none;" parent="1" vertex="1">
                    <mxGeometry x="-302" y="761.75" width="60" height="60" as="geometry"/>
                </mxCell>
                <mxCell id="159" value="" style="sketch=0;outlineConnect=0;fontColor=#1A1A1A;gradientColor=none;strokeColor=#1A1A1A;fillColor=none;dashed=0;verticalLabelPosition=bottom;verticalAlign=top;align=center;html=1;fontSize=12;fontStyle=0;aspect=fixed;shape=mxgraph.aws4.resourceIcon;resIcon=mxgraph.aws4.user;fontFamily=source code pro;labelBackgroundColor=none;" parent="1" vertex="1">
                    <mxGeometry x="643" y="663" width="60" height="60" as="geometry"/>
                </mxCell>
                <mxCell id="160" value="" style="sketch=0;outlineConnect=0;fontColor=#1A1A1A;gradientColor=none;strokeColor=#1A1A1A;fillColor=none;dashed=0;verticalLabelPosition=bottom;verticalAlign=top;align=center;html=1;fontSize=12;fontStyle=0;aspect=fixed;shape=mxgraph.aws4.resourceIcon;resIcon=mxgraph.aws4.user;fontFamily=source code pro;labelBackgroundColor=none;" parent="1" vertex="1">
                    <mxGeometry x="643" y="747" width="60" height="60" as="geometry"/>
                </mxCell>
                <mxCell id="162" style="html=1;fontSize=12;startArrow=none;startFill=0;endArrow=none;endFill=0;strokeColor=#1A1A1A;fontColor=#1A1A1A;fontFamily=source code pro;labelBackgroundColor=none;" parent="1" source="161" target="209" edge="1">
                    <mxGeometry relative="1" as="geometry">
                        <mxPoint x="-266" y="213" as="targetPoint"/>
                    </mxGeometry>
                </mxCell>
                <mxCell id="161" value="&lt;font style=&quot;font-size: 12px;&quot;&gt;info?&lt;/font&gt;" style="rhombus;whiteSpace=wrap;html=1;strokeColor=none;fontSize=20;fillColor=#1A1A1A;fontColor=#CC00CC;fontFamily=source code pro;labelBackgroundColor=none;fontStyle=1" parent="1" vertex="1">
                    <mxGeometry x="-306" y="317" width="80" height="80" as="geometry"/>
                </mxCell>
                <mxCell id="163" value="true" style="text;html=1;strokeColor=none;fillColor=none;align=center;verticalAlign=middle;whiteSpace=wrap;rounded=0;fontSize=12;fontColor=#1A1A1A;fontFamily=source code pro;labelBackgroundColor=none;" parent="1" vertex="1">
                    <mxGeometry x="-279" y="388" width="60" height="30" as="geometry"/>
                </mxCell>
                <mxCell id="164" value="false" style="text;html=1;strokeColor=none;fillColor=none;align=center;verticalAlign=middle;whiteSpace=wrap;rounded=0;fontSize=12;fontColor=#1A1A1A;fontFamily=source code pro;labelBackgroundColor=none;" parent="1" vertex="1">
                    <mxGeometry x="-238.5" y="337" width="60" height="30" as="geometry"/>
                </mxCell>
                <mxCell id="165" value="&lt;font style=&quot;font-size: 12px;&quot;&gt;handle?&lt;/font&gt;" style="rhombus;whiteSpace=wrap;html=1;strokeColor=none;fontSize=20;fillColor=#1A1A1A;fontColor=#CC00CC;fontFamily=source code pro;labelBackgroundColor=none;fontStyle=1" parent="1" vertex="1">
                    <mxGeometry x="113" y="317" width="80" height="80" as="geometry"/>
                </mxCell>
                <mxCell id="167" value="true" style="text;html=1;strokeColor=none;fillColor=none;align=center;verticalAlign=middle;whiteSpace=wrap;rounded=0;fontSize=12;fontColor=#1A1A1A;fontFamily=source code pro;labelBackgroundColor=default;" parent="1" vertex="1">
                    <mxGeometry x="123" y="290" width="60" height="30" as="geometry"/>
                </mxCell>
                <mxCell id="168" value="false" style="text;html=1;strokeColor=none;fillColor=none;align=center;verticalAlign=middle;whiteSpace=wrap;rounded=0;fontSize=12;fontColor=#1A1A1A;fontFamily=source code pro;labelBackgroundColor=none;" parent="1" vertex="1">
                    <mxGeometry x="199" y="353" width="60" height="30" as="geometry"/>
                </mxCell>
                <mxCell id="176" style="edgeStyle=none;curved=1;rounded=0;orthogonalLoop=1;jettySize=auto;html=1;endArrow=open;startSize=14;endSize=6;sourcePerimeterSpacing=8;targetPerimeterSpacing=8;strokeColor=default;entryX=0.545;entryY=0.007;entryDx=0;entryDy=0;entryPerimeter=0;fontColor=#1A1A1A;fontFamily=source code pro;labelBackgroundColor=none;endFill=0;" parent="1" source="175" target="115" edge="1">
                    <mxGeometry relative="1" as="geometry">
                        <mxPoint x="-269" y="628" as="targetPoint"/>
                    </mxGeometry>
                </mxCell>
                <mxCell id="190" value="&lt;b&gt;result&lt;/b&gt; = handle(&lt;b&gt;SLA&lt;/b&gt;)" style="edgeLabel;html=1;align=center;verticalAlign=middle;resizable=0;points=[];fontColor=#1A1A1A;labelBackgroundColor=default;fontFamily=source code pro;" parent="176" vertex="1" connectable="0">
                    <mxGeometry x="-0.2417" y="1" relative="1" as="geometry">
                        <mxPoint as="offset"/>
                    </mxGeometry>
                </mxCell>
                <mxCell id="175" value="SNOW" style="rounded=0;whiteSpace=wrap;html=1;fontColor=#1A1A1A;fillColor=#999999;fontFamily=source code pro;labelBackgroundColor=none;strokeColor=none;" parent="1" vertex="1">
                    <mxGeometry x="-347.5" y="530" width="163" height="43" as="geometry"/>
                </mxCell>
                <mxCell id="180" value="2.1.2:&lt;br&gt;&lt;b style=&quot;border-color: var(--border-color);&quot;&gt;result&lt;/b&gt;&amp;nbsp;=&amp;nbsp;request(SLA)" style="rounded=0;orthogonalLoop=1;jettySize=auto;html=1;strokeColor=default;endArrow=open;startSize=14;endSize=14;sourcePerimeterSpacing=8;targetPerimeterSpacing=8;labelBackgroundColor=default;fontColor=#1A1A1A;fontFamily=source code pro;" parent="1" source="178" target="189" edge="1">
                    <mxGeometry x="0.6364" y="-2" relative="1" as="geometry">
                        <mxPoint x="-62" y="857.0000000000002" as="targetPoint"/>
                        <mxPoint as="offset"/>
                    </mxGeometry>
                </mxCell>
                <mxCell id="178" value="&lt;font style=&quot;font-size: 12px;&quot;&gt;handle?&lt;/font&gt;" style="rhombus;whiteSpace=wrap;html=1;strokeColor=#FFFFFF;fontSize=20;fillColor=#1A1A1A;fontColor=#CC00CC;fontFamily=source code pro;labelBackgroundColor=none;fontStyle=1" parent="1" vertex="1">
                    <mxGeometry x="-102" y="706" width="80" height="80" as="geometry"/>
                </mxCell>
                <mxCell id="183" value="false" style="text;html=1;strokeColor=none;fillColor=none;align=center;verticalAlign=middle;whiteSpace=wrap;rounded=0;fontSize=12;fontColor=#1A1A1A;fontFamily=source code pro;labelBackgroundColor=none;" parent="1" vertex="1">
                    <mxGeometry x="-65" y="781" width="60" height="30" as="geometry"/>
                </mxCell>
                <mxCell id="195" style="edgeStyle=orthogonalEdgeStyle;html=1;entryX=0.42;entryY=1.005;entryDx=0;entryDy=0;entryPerimeter=0;strokeColor=default;fontColor=#1A1A1A;endArrow=open;endFill=0;fontFamily=source code pro;labelBackgroundColor=none;curved=1;" parent="1" source="189" target="193" edge="1">
                    <mxGeometry relative="1" as="geometry">
                        <Array as="points">
                            <mxPoint x="597" y="1049"/>
                        </Array>
                    </mxGeometry>
                </mxCell>
                <mxCell id="196" value="&lt;span style=&quot;&quot;&gt;2.1.1.1:&lt;br&gt;&lt;/span&gt;&lt;b style=&quot;border-color: var(--border-color);&quot;&gt;result&lt;/b&gt;&amp;nbsp;=&amp;nbsp;&lt;span style=&quot;&quot;&gt;request(&lt;b&gt;SLA&lt;/b&gt;)&lt;/span&gt;" style="edgeLabel;html=1;align=center;verticalAlign=middle;resizable=0;points=[];fontColor=#1A1A1A;fontStyle=0;fontFamily=source code pro;labelBackgroundColor=default;" parent="195" vertex="1" connectable="0">
                    <mxGeometry x="-0.2182" relative="1" as="geometry">
                        <mxPoint x="-20" y="-14" as="offset"/>
                    </mxGeometry>
                </mxCell>
                <mxCell id="193" value="" style="rounded=0;whiteSpace=wrap;html=1;fontColor=#1A1A1A;fillColor=none;dashed=1;strokeColor=default;fontFamily=source code pro;labelBackgroundColor=none;" parent="1" vertex="1">
                    <mxGeometry x="560" y="634.5" width="88" height="211.5" as="geometry"/>
                </mxCell>
                <mxCell id="194" value="Workers L3 Stand-by &lt;b&gt;Support&lt;/b&gt;" style="text;html=1;strokeColor=none;fillColor=none;align=center;verticalAlign=middle;whiteSpace=wrap;rounded=0;fontColor=#1A1A1A;fontSize=20;fontFamily=source code pro;labelBackgroundColor=none;" parent="1" vertex="1">
                    <mxGeometry x="558" y="508" width="136" height="71" as="geometry"/>
                </mxCell>
                <mxCell id="200" value="Worker L0&lt;br&gt;Docs" style="text;html=1;strokeColor=none;fillColor=none;align=center;verticalAlign=middle;whiteSpace=wrap;rounded=0;fontColor=#1A1A1A;fontSize=20;fontFamily=source code pro;labelBackgroundColor=none;" parent="1" vertex="1">
                    <mxGeometry x="113" y="89" width="175" height="59" as="geometry"/>
                </mxCell>
                <mxCell id="204" value="TFSN" style="sketch=0;outlineConnect=0;fontColor=#1A1A1A;gradientColor=none;strokeColor=#1A1A1A;fillColor=none;dashed=0;verticalLabelPosition=bottom;verticalAlign=top;align=center;html=1;fontSize=12;fontStyle=0;aspect=fixed;shape=mxgraph.aws4.resourceIcon;resIcon=mxgraph.aws4.user;fontFamily=source code pro;labelBackgroundColor=none;" parent="1" vertex="1">
                    <mxGeometry x="-347.5" y="-159.5" width="60" height="60" as="geometry"/>
                </mxCell>
                <mxCell id="205" value="JYKY" style="sketch=0;outlineConnect=0;fontColor=#1A1A1A;gradientColor=none;strokeColor=#1A1A1A;fillColor=none;dashed=0;verticalLabelPosition=bottom;verticalAlign=top;align=center;html=1;fontSize=12;fontStyle=0;aspect=fixed;shape=mxgraph.aws4.resourceIcon;resIcon=mxgraph.aws4.user;fontFamily=source code pro;labelBackgroundColor=none;" parent="1" vertex="1">
                    <mxGeometry x="-270" y="-159.5" width="60" height="60" as="geometry"/>
                </mxCell>
                <mxCell id="207" value="SQLZ" style="sketch=0;outlineConnect=0;fontColor=#1A1A1A;gradientColor=none;strokeColor=#1A1A1A;fillColor=none;dashed=0;verticalLabelPosition=bottom;verticalAlign=top;align=center;html=1;fontSize=12;fontStyle=0;aspect=fixed;shape=mxgraph.aws4.resourceIcon;resIcon=mxgraph.aws4.user;fontFamily=source code pro;labelBackgroundColor=none;" parent="1" vertex="1">
                    <mxGeometry x="-347.5" y="-62.5" width="60" height="60" as="geometry"/>
                </mxCell>
                <mxCell id="208" value="MLTZ" style="sketch=0;outlineConnect=0;fontColor=#1A1A1A;gradientColor=none;strokeColor=#1A1A1A;fillColor=none;dashed=0;verticalLabelPosition=bottom;verticalAlign=top;align=center;html=1;fontSize=12;fontStyle=0;aspect=fixed;shape=mxgraph.aws4.resourceIcon;resIcon=mxgraph.aws4.user;fontFamily=source code pro;labelBackgroundColor=none;" parent="1" vertex="1">
                    <mxGeometry x="-270" y="-62.5" width="60" height="60" as="geometry"/>
                </mxCell>
                <mxCell id="210" value="1. &lt;b&gt;interest&lt;/b&gt;&amp;nbsp;= What is NNEDH?&lt;br&gt;&amp;nbsp; &amp;nbsp;&lt;b&gt;info&lt;/b&gt;" style="html=1;labelBackgroundColor=default;strokeColor=default;fontFamily=source code pro;fontColor=#1A1A1A;endArrow=open;endFill=0;align=left;" parent="1" source="209" target="206" edge="1">
                    <mxGeometry x="0.0756" y="94" relative="1" as="geometry">
                        <mxPoint as="offset"/>
                    </mxGeometry>
                </mxCell>
                <mxCell id="212" style="html=1;labelBackgroundColor=default;strokeColor=default;fontFamily=source code pro;fontColor=#1A1A1A;endArrow=none;endFill=0;entryX=0;entryY=0.5;entryDx=0;entryDy=0;" parent="1" source="209" target="211" edge="1">
                    <mxGeometry relative="1" as="geometry"/>
                </mxCell>
                <mxCell id="209" value="user" style="sketch=0;outlineConnect=0;fontColor=#1A1A1A;gradientColor=none;strokeColor=#1A1A1A;fillColor=none;dashed=0;verticalLabelPosition=bottom;verticalAlign=top;align=center;html=1;fontSize=12;fontStyle=0;aspect=fixed;shape=mxgraph.aws4.resourceIcon;resIcon=mxgraph.aws4.user;fontFamily=source code pro;labelBackgroundColor=default;" parent="1" vertex="1">
                    <mxGeometry x="-296" y="153" width="60" height="60" as="geometry"/>
                </mxCell>
                <mxCell id="216" value="2. &lt;b&gt;onboarding&lt;/b&gt;&amp;nbsp;= get()" style="edgeStyle=none;html=1;labelBackgroundColor=default;strokeColor=#007FFF;fontFamily=source code pro;fontColor=#007FFF;endArrow=open;endFill=0;exitX=1;exitY=0.5;exitDx=0;exitDy=0;" parent="1" source="211" target="121" edge="1">
                    <mxGeometry x="0.0004" relative="1" as="geometry">
                        <mxPoint as="offset"/>
                    </mxGeometry>
                </mxCell>
                <mxCell id="211" value="&lt;font style=&quot;font-size: 12px;&quot;&gt;interest?&lt;/font&gt;" style="rhombus;whiteSpace=wrap;html=1;strokeColor=none;fontSize=20;fillColor=#1A1A1A;fontColor=#CC00CC;fontFamily=source code pro;labelBackgroundColor=none;fontStyle=1" parent="1" vertex="1">
                    <mxGeometry x="-102" y="-13" width="80" height="80" as="geometry"/>
                </mxCell>
                <mxCell id="215" value="true" style="text;html=1;strokeColor=none;fillColor=none;align=center;verticalAlign=middle;whiteSpace=wrap;rounded=0;labelBackgroundColor=default;fontFamily=source code pro;fontColor=#1A1A1A;" parent="1" vertex="1">
                    <mxGeometry x="-30" y="4" width="60" height="30" as="geometry"/>
                </mxCell>
                <mxCell id="218" value="SNDD" style="sketch=0;outlineConnect=0;fontColor=#1A1A1A;gradientColor=none;strokeColor=#1A1A1A;fillColor=none;dashed=0;verticalLabelPosition=bottom;verticalAlign=top;align=center;html=1;fontSize=12;fontStyle=0;aspect=fixed;shape=mxgraph.aws4.resourceIcon;resIcon=mxgraph.aws4.user;fontFamily=source code pro;labelBackgroundColor=none;" parent="1" vertex="1">
                    <mxGeometry x="-270" y="-242" width="60" height="60" as="geometry"/>
                </mxCell>
                <mxCell id="219" value="onboarding&lt;br&gt;pool" style="text;html=1;strokeColor=none;fillColor=none;align=center;verticalAlign=middle;whiteSpace=wrap;rounded=0;fontFamily=source code pro;fontStyle=1" parent="1" vertex="1">
                    <mxGeometry x="-277" y="-288" width="79" height="30" as="geometry"/>
                </mxCell>
                <mxCell id="189" value="NNEDH Platform Team" style="sketch=0;pointerEvents=1;shadow=0;dashed=0;html=1;strokeColor=none;fillColor=#DF8C42;labelPosition=center;verticalLabelPosition=bottom;verticalAlign=top;align=center;outlineConnect=0;shape=mxgraph.veeam2.microsoft_teams;fontColor=#1A1A1A;fontFamily=source code pro;labelBackgroundColor=default;" parent="1" vertex="1">
                    <mxGeometry x="-79" y="1023" width="34" height="34" as="geometry"/>
                </mxCell>
                <mxCell id="221" value="datahub backlog" style="sketch=0;aspect=fixed;html=1;points=[];align=center;image;fontSize=12;image=img/lib/mscae/Azure_Boards.svg;labelBackgroundColor=default;fontFamily=source code pro;" parent="1" vertex="1">
                    <mxGeometry x="473" y="1109.5" width="43" height="43" as="geometry"/>
                </mxCell>
                <mxCell id="223" value="- sprint based&lt;br style=&quot;font-size: 9px;&quot;&gt;- workload takes into account support provided to L1" style="text;html=1;strokeColor=none;fillColor=none;align=left;verticalAlign=middle;whiteSpace=wrap;rounded=0;fontFamily=source code pro;fontSize=9;" vertex="1" parent="1">
                    <mxGeometry x="722" y="521" width="290" height="53" as="geometry"/>
                </mxCell>
                <mxCell id="222" value="3: add&amp;nbsp;" style="html=1;fontFamily=source code pro;startArrow=none;startFill=0;endArrow=open;endFill=0;exitX=0.5;exitY=1;exitDx=0;exitDy=0;" parent="1" source="226" target="221" edge="1">
                    <mxGeometry x="-0.0118" y="-2" relative="1" as="geometry">
                        <mxPoint x="-234" y="1042" as="sourcePoint"/>
                        <mxPoint as="offset"/>
                    </mxGeometry>
                </mxCell>
                <mxCell id="230" value="4: check priorities" style="edgeStyle=none;html=1;fontFamily=source code pro;fontSize=9;endArrow=open;endFill=0;exitX=0.5;exitY=1;exitDx=0;exitDy=0;" edge="1" parent="1" source="226" target="229">
                    <mxGeometry relative="1" as="geometry"/>
                </mxCell>
                <mxCell id="226" value="&lt;font style=&quot;font-size: 12px;&quot;&gt;quick fix?&lt;/font&gt;" style="rhombus;whiteSpace=wrap;html=1;strokeColor=#FFFFFF;fontSize=20;fillColor=#1A1A1A;fontColor=#CC00CC;fontFamily=source code pro;labelBackgroundColor=none;fontStyle=1" vertex="1" parent="1">
                    <mxGeometry x="588" y="936" width="80" height="80" as="geometry"/>
                </mxCell>
                <mxCell id="227" value="false" style="text;html=1;strokeColor=none;fillColor=none;align=center;verticalAlign=middle;whiteSpace=wrap;rounded=0;fontSize=12;fontColor=#1A1A1A;fontFamily=source code pro;labelBackgroundColor=none;" vertex="1" parent="1">
                    <mxGeometry x="634" y="1004" width="60" height="30" as="geometry"/>
                </mxCell>
                <mxCell id="228" value="" style="html=1;fontFamily=source code pro;startArrow=none;startFill=0;endArrow=none;endFill=0;exitX=0.75;exitY=1;exitDx=0;exitDy=0;entryX=0.5;entryY=0;entryDx=0;entryDy=0;" edge="1" parent="1" source="193" target="226">
                    <mxGeometry x="-0.0118" y="-2" relative="1" as="geometry">
                        <mxPoint x="625" y="1029" as="sourcePoint"/>
                        <mxPoint as="offset"/>
                        <mxPoint x="625" y="1114" as="targetPoint"/>
                    </mxGeometry>
                </mxCell>
                <mxCell id="229" value="TFSN" style="sketch=0;outlineConnect=0;fontColor=#1A1A1A;gradientColor=none;strokeColor=#1A1A1A;fillColor=none;dashed=0;verticalLabelPosition=bottom;verticalAlign=top;align=center;html=1;fontSize=12;fontStyle=0;aspect=fixed;shape=mxgraph.aws4.resourceIcon;resIcon=mxgraph.aws4.user;fontFamily=source code pro;labelBackgroundColor=none;" vertex="1" parent="1">
                    <mxGeometry x="730" y="1105" width="60" height="60" as="geometry"/>
                </mxCell>
                <mxCell id="231" value="" style="edgeStyle=orthogonalEdgeStyle;html=1;align=left;strokeColor=#FF9933;labelBackgroundColor=default;fontColor=#1A1A1A;fontFamily=source code pro;curved=1;exitX=0.5;exitY=0;exitDx=0;exitDy=0;entryX=1;entryY=0.5;entryDx=0;entryDy=0;" edge="1" parent="1" source="193" target="121">
                    <mxGeometry x="0.4113" y="17" relative="1" as="geometry">
                        <mxPoint x="223" y="193" as="targetPoint"/>
                        <mxPoint as="offset"/>
                        <Array as="points">
                            <mxPoint x="604" y="367"/>
                            <mxPoint x="602" y="367"/>
                            <mxPoint x="602" y="183"/>
                        </Array>
                        <mxPoint x="550" y="480" as="sourcePoint"/>
                    </mxGeometry>
                </mxCell>
                <mxCell id="140" value="4: update(&lt;br&gt;&lt;span style=&quot;&quot;&gt;&amp;nbsp; &amp;nbsp; data = &lt;/span&gt;&lt;b style=&quot;&quot;&gt;info&lt;/b&gt;&lt;span style=&quot;&quot;&gt;,&lt;br&gt;&lt;/span&gt;&amp;nbsp; &amp;nbsp; approver =&amp;nbsp;&lt;i&gt;L3 Worker&lt;/i&gt;&lt;i&gt;,&lt;br&gt;&amp;nbsp; &amp;nbsp;&amp;nbsp;&lt;/i&gt;mandatory = DIPM,&lt;br&gt;&amp;nbsp; &amp;nbsp; template = template,&lt;br&gt;&amp;nbsp; &amp;nbsp; PR = True&lt;br&gt;)" style="edgeStyle=orthogonalEdgeStyle;html=1;align=left;exitX=1;exitY=0.5;exitDx=0;exitDy=0;strokeColor=#FF9933;labelBackgroundColor=default;fontColor=#FF9933;fontFamily=source code pro;curved=1;" parent="1" source="165" target="121" edge="1">
                    <mxGeometry x="0.3697" y="7" relative="1" as="geometry">
                        <mxPoint x="445" y="446" as="targetPoint"/>
                        <mxPoint as="offset"/>
                        <Array as="points">
                            <mxPoint x="281" y="357"/>
                            <mxPoint x="281" y="183"/>
                        </Array>
                    </mxGeometry>
                </mxCell>
            </root>
        </mxGraphModel>
    </diagram>
</mxfile>